<?xml version="1.0" encoding="UTF-8" standalone="no"?>
<!-- Created with Inkscape (http://www.inkscape.org/) -->

<svg
   width="40.086563mm"
   height="52.49477mm"
   viewBox="0 0 40.086563 52.49477"
   version="1.1"
   id="svg5"
   inkscape:version="1.1.1 (3bf5ae0d25, 2021-09-20)"
   sodipodi:docname="head.svg"
   xml:space="preserve"
   xmlns:inkscape="http://www.inkscape.org/namespaces/inkscape"
   xmlns:sodipodi="http://sodipodi.sourceforge.net/DTD/sodipodi-0.dtd"
   xmlns="http://www.w3.org/2000/svg"
   xmlns:svg="http://www.w3.org/2000/svg"><sodipodi:namedview
     id="namedview7"
     pagecolor="#ffffff"
     bordercolor="#cccccc"
     borderopacity="1"
     inkscape:pageshadow="0"
     inkscape:pageopacity="1"
     inkscape:pagecheckerboard="0"
     inkscape:document-units="mm"
     showgrid="false"
     inkscape:zoom="0.73406285"
     inkscape:cx="397.10496"
     inkscape:cy="561.94098"
     inkscape:window-width="1920"
     inkscape:window-height="1009"
     inkscape:window-x="-8"
     inkscape:window-y="-8"
     inkscape:window-maximized="1"
     inkscape:current-layer="layer1"
     inkscape:showpageshadow="0"
     inkscape:deskcolor="#d1d1d1"><inkscape:page
       x="0"
       y="0"
       width="40.086563"
       height="52.49477"
       id="page1"
       margin="0"
       bleed="0" /></sodipodi:namedview><defs
     id="defs2" /><g
     inkscape:label="Warstwa 1"
     inkscape:groupmode="layer"
     id="layer1"
     transform="translate(-123.77428,-54.159264)"><path
       style="fill:#ffffff;stroke:none"
       d="m 135.54478,106.4459 c -0.25677,-0.25677 -0.28589,-0.40545 -0.36485,-1.86298 -0.0696,-1.28442 -0.29838,-3.29503 -0.47366,-4.1626 -0.1955,-0.967648 -0.42765,-1.553835 -0.87301,-2.204343 -0.87077,-1.271901 -1.06712,-2.628446 -0.53022,-3.6633 l 0.28169,-0.542932 -0.56241,-0.501262 c -0.71725,-0.639277 -0.92791,-1.086192 -1.2608,-2.674781 -0.49238,-2.349664 -0.36312,-3.404497 0.51656,-4.215355 0.38321,-0.353233 0.69063,-0.491241 2.19081,-0.983518 2.3351,-0.766251 2.76672,-0.830761 5.09304,-0.761217 2.06282,0.06167 3.04298,0.226248 4.40239,0.739217 2.04635,0.772178 3.06691,1.813035 3.60225,3.673863 0.60733,2.111077 0.37668,3.747519 -0.69549,4.93428 l -0.37369,0.413624 0.16732,0.452472 c 0.0964,0.260597 0.16951,0.781182 0.17247,1.227619 0.004,0.647195 -0.0652,0.97987 -0.42117,2.015381 -0.58728,1.708482 -0.65532,2.210362 -0.70056,5.167642 -0.0217,1.42111 -0.0407,2.61871 -0.0421,2.66134 -0.001,0.0426 -0.0956,0.17053 -0.2093,0.28422 -0.2999,0.2999 -0.83286,0.27195 -1.14471,-0.06 l -0.25056,-0.26673 0.005,-2.44628 c 0.006,-2.93781 0.12677,-3.909789 0.69017,-5.546878 0.41,-1.191387 0.53922,-2.037882 0.37266,-2.441399 -0.0632,-0.153163 -0.11796,-0.151173 -0.63402,0.02305 -2.02664,0.684188 -4.86509,0.497385 -8.202,-0.539788 -0.57771,-0.179564 -1.12629,-0.297355 -1.21906,-0.261756 -0.0928,0.0356 -0.24137,0.238722 -0.33023,0.451384 -0.20954,0.501522 -0.0541,1.248614 0.38263,1.838333 0.97636,1.318556 1.49967,3.657044 1.71515,7.664414 0.0674,1.25323 0.0672,1.25463 -0.20155,1.52338 -0.32714,0.32713 -0.81184,0.35567 -1.10259,0.0649 z m 8.37334,-12.283483 c 1.82412,-0.593219 2.57665,-1.757286 2.28352,-3.532282 -0.36014,-2.180733 -1.34054,-3.151673 -3.81922,-3.782371 -1.31972,-0.335803 -3.41234,-0.494053 -4.66165,-0.352529 -1.12012,0.126888 -4.06815,1.036737 -4.4007,1.358187 -0.16637,0.160804 -0.20438,0.325211 -0.19476,0.842373 0.0147,0.792552 0.42081,2.816128 0.64172,3.197922 0.48244,0.83378 2.50751,1.711807 5.3408,2.315651 1.50408,0.320557 3.74755,0.29866 4.81029,-0.04695 z m -4.13544,12.232433 -0.23969,-0.25513 -0.0109,-3.92178 -0.0109,-3.921788 0.25056,-0.267263 c 0.28404,-0.302977 0.7757,-0.356966 1.09911,-0.120691 0.19072,0.139336 0.20317,0.337012 0.2523,4.004922 0.0284,2.1221 0.0185,3.99148 -0.022,4.15418 -0.15098,0.60658 -0.88512,0.78895 -1.31858,0.32755 z m 10.71757,-14.036026 c -0.90678,-0.294449 -1.51563,-1.123453 -1.51996,-2.069574 -0.001,-0.272832 -0.0794,-0.644902 -0.17369,-0.826823 -0.42686,-0.823614 -0.35646,-1.724733 0.18617,-2.383035 0.65039,-0.789035 1.72357,-1.017547 2.65689,-0.565732 l 0.46314,0.224201 1.40401,-0.328719 c 0.7722,-0.180796 1.4217,-0.38129 1.44333,-0.445542 0.10137,-0.30109 0.79516,-0.919943 1.20819,-1.077678 0.53001,-0.202412 1.36506,-0.149913 1.76302,0.110839 0.22245,0.145753 0.27521,0.145546 0.56093,-0.0022 0.17346,-0.0897 0.55705,-0.185616 0.85243,-0.213145 0.29537,-0.02753 1.00213,-0.12329 1.57057,-0.212799 0.81124,-0.127742 1.12561,-0.137805 1.46164,-0.04679 0.84216,0.228105 1.48392,1.314996 1.48392,2.513182 0,1.030387 -0.45604,1.550893 -1.70533,1.946408 -0.3979,0.125975 -1.00252,0.344943 -1.34358,0.486594 -0.34107,0.141652 -0.81475,0.270007 -1.05264,0.285235 -0.35326,0.02261 -0.49513,0.099 -0.77426,0.416908 -0.67713,0.771217 -1.70433,0.979185 -2.59907,0.526212 l -0.48191,-0.243974 -1.36008,0.332834 c -1.31208,0.321084 -1.37064,0.347026 -1.65883,0.7349 -0.56956,0.766565 -1.5477,1.11055 -2.38489,0.8387 z m 0.84638,-1.617743 c 0.0806,-0.05101 0.24336,-0.294466 0.36173,-0.54102 l 0.21522,-0.448281 2.17041,-0.540332 c 1.19373,-0.297182 2.2533,-0.514489 2.35461,-0.482904 0.10131,0.03159 0.30576,0.17009 0.45434,0.307788 0.2925,0.27108 0.64205,0.32369 0.83941,0.126337 0.2109,-0.210901 0.13791,-0.547469 -0.18604,-0.857829 -0.33856,-0.324367 -0.40595,-0.761661 -0.19031,-1.234952 0.0998,-0.218984 0.0885,-0.297375 -0.0677,-0.469951 -0.32059,-0.354247 -0.87888,-0.213739 -0.87888,0.221194 0,0.09915 -0.10464,0.296797 -0.23254,0.439218 -0.1921,0.213906 -0.57161,0.340746 -2.18191,0.729233 -1.07215,0.258658 -2.08015,0.470287 -2.23999,0.470287 -0.15985,0 -0.42882,-0.116272 -0.59771,-0.258382 -0.36902,-0.310514 -0.79618,-0.337257 -0.94501,-0.05916 -0.13554,0.253256 -0.0559,0.456475 0.33029,0.842649 0.25071,0.250711 0.29655,0.365626 0.24539,0.615075 -0.0346,0.168719 -0.0904,0.438789 -0.12389,0.600154 -0.0948,0.456444 0.3019,0.7755 0.67257,0.54088 z m 8.61943,-2.713821 c 0.12416,-0.0674 0.66758,-0.269048 1.2076,-0.448101 0.90174,-0.298987 0.98461,-0.348926 1.01563,-0.612029 0.0186,-0.157564 -0.0237,-0.425202 -0.0939,-0.594751 -0.11174,-0.269778 -0.16758,-0.301487 -0.44718,-0.253936 -0.17572,0.02988 -0.71482,0.108413 -1.198,0.174507 -1.46549,0.200468 -1.34358,0.131541 -1.34358,0.759687 0,0.402486 0.0582,0.626485 0.2142,0.824853 0.24056,0.305826 0.32267,0.324884 0.64525,0.14977 z m -12.69603,-2.729304 c -0.0554,-0.0138 -0.27372,-0.05401 -0.48521,-0.08935 -0.21149,-0.03534 -0.52051,-0.178674 -0.68671,-0.318522 -0.16621,-0.139849 -0.41175,-0.254529 -0.54565,-0.254846 -0.53916,-0.0013 -1.08278,-0.243105 -1.51251,-0.672836 -0.39739,-0.397386 -0.48241,-0.437698 -0.82717,-0.392204 -0.22782,0.03006 -0.57359,-0.02022 -0.84934,-0.123519 -0.28522,-0.106844 -0.7249,-0.168423 -1.13688,-0.159223 -0.51807,0.01157 -0.77822,-0.03938 -1.13688,-0.222658 -0.45776,-0.233913 -0.47079,-0.234706 -0.82683,-0.05028 -0.2796,0.144835 -0.51425,0.176022 -1.03352,0.137363 -0.45183,-0.03364 -0.83598,0.0031 -1.17322,0.112172 -0.41206,0.133282 -0.59279,0.141093 -1.01415,0.04383 -0.49408,-0.114046 -0.52662,-0.107267 -0.89385,0.186224 -0.3791,0.302977 -1.2817,0.584012 -1.48068,0.46103 -0.0574,-0.03545 -0.21521,0.03976 -0.35079,0.167127 -0.33146,0.311395 -1.14168,0.51264 -1.67285,0.415509 -1.02777,-0.187942 -1.70235,-0.952896 -1.76103,-1.996981 -0.0269,-0.478785 0.0125,-0.736559 0.15391,-1.005564 l 0.19009,-0.361735 -0.70863,-2.139942 c -0.54794,-1.654703 -0.75396,-2.154329 -0.90853,-2.20339 -0.8017,-0.254448 -1.43722,-1.466117 -1.23628,-2.357052 0.0726,-0.322012 0.0556,-0.399686 -0.1066,-0.486494 -0.10616,-0.05682 -0.3216,-0.322712 -0.47876,-0.59088 -0.34443,-0.587735 -0.38559,-1.425602 -0.0968,-1.970207 0.18129,-0.341842 0.18041,-0.347104 -0.29809,-1.782837 -0.31528,-0.946017 -0.53004,-1.439983 -0.62607,-1.439983 -0.22193,0 -0.93096,-0.683304 -1.11798,-1.077415 -0.19118,-0.402883 -0.21668,-1.225843 -0.0526,-1.69662 0.0938,-0.269058 0.0774,-0.399542 -0.0963,-0.764731 -0.11516,-0.242175 -0.24091,-0.672863 -0.27944,-0.957083 -0.0385,-0.284221 -0.15799,-0.841392 -0.26546,-1.238158 -0.34006,-1.25555 -0.20826,-1.987589 0.45869,-2.547669 0.38394,-0.322418 1.32648,-0.632447 1.93632,-0.636912 0.97466,-0.0071 1.48432,0.448277 2.00011,1.78724 0.14233,0.369487 0.40017,0.945774 0.57299,1.280638 0.17281,0.334864 0.31421,0.754494 0.31421,0.932511 0,0.263133 0.0668,0.359655 0.3573,0.516088 0.84347,0.454239 1.2412,1.736017 0.82504,2.658893 l -0.18699,0.414677 0.45268,1.383562 c 0.40087,1.225188 0.48574,1.397254 0.74144,1.50317 0.74197,0.307333 1.3023,1.362174 1.1836,2.228166 -0.0528,0.38499 -0.0226,0.467971 0.29082,0.800301 0.19232,0.203925 0.40545,0.539765 0.47362,0.746311 0.14754,0.447062 0.0912,1.214556 -0.12068,1.644314 -0.1453,0.294713 -0.11974,0.407353 0.54948,2.420861 0.38603,1.161472 0.76064,2.148102 0.83247,2.192511 0.0739,0.04568 0.19168,0.01968 0.27125,-0.05986 0.11863,-0.118594 0.10702,-0.490741 -0.0742,-2.377227 l -0.21481,-2.236621 -0.32812,-0.276096 c -0.64123,-0.539558 -0.88796,-1.575781 -0.56133,-2.357516 0.1413,-0.338166 0.13479,-0.391026 -0.10335,-0.838897 -0.4259,-0.801008 -0.31794,-1.808318 0.26392,-2.462584 0.17628,-0.198219 0.17538,-0.297545 -0.022,-2.419255 l -0.20585,-2.21255 -0.35111,-0.33114 c -0.44883,-0.423297 -0.66257,-0.939696 -0.66257,-1.600759 0,-0.502836 0.27443,-1.244694 0.51557,-1.393726 0.0695,-0.04297 0.0628,-0.141562 -0.0198,-0.291233 -0.15256,-0.276357 -0.12433,-3.564173 0.0342,-3.98267 0.13243,-0.349601 0.47395,-0.716803 0.84727,-0.910989 0.48171,-0.250569 1.40091,-0.359061 2.0013,-0.236213 0.96388,0.197224 1.36345,0.719252 1.57783,2.061397 0.0681,0.42633 0.19613,1.04256 0.28451,1.369399 0.0896,0.331185 0.13637,0.775713 0.10572,1.004163 -0.0483,0.359812 -0.0131,0.454337 0.28786,0.773419 0.68519,0.726517 0.75881,1.864679 0.17425,2.693999 l -0.32311,0.458398 0.20416,2.181242 0.20416,2.181243 0.35964,0.339183 c 0.64316,0.606576 0.85543,1.586881 0.51832,2.393701 -0.1409,0.337209 -0.13716,0.387189 0.0481,0.642636 0.52472,0.723526 0.44065,1.913636 -0.18588,2.63144 -0.1454,0.166584 -0.14266,0.394533 0.0289,2.403251 0.18974,2.221718 0.26602,2.525084 0.6025,2.395967 0.0942,-0.03613 0.22798,-0.748638 0.4295,-2.286699 0.26935,-2.055666 0.27949,-2.248866 0.12688,-2.417496 -0.61962,-0.684668 -0.62019,-2.04324 -0.001,-2.727275 0.1315,-0.145309 0.14243,-0.239857 0.0542,-0.46887 -0.34367,-0.891994 -0.17222,-1.668272 0.52943,-2.397061 l 0.45598,-0.473619 0.4253,-3.094798 c 0.36081,-2.625558 0.404,-3.119181 0.28486,-3.255615 -0.70965,-0.812622 -0.62075,-2.2419 0.18631,-2.995199 0.2154,-0.201053 0.26844,-0.346537 0.26844,-0.736314 0,-0.267165 0.0657,-0.672112 0.14611,-0.899883 0.0804,-0.227771 0.21782,-0.794277 0.30545,-1.258902 0.21171,-1.122473 0.50788,-1.648505 1.09479,-1.94447 0.7935,-0.400135 2.20041,-0.235077 2.88155,0.338061 0.55452,0.4666 0.64843,0.90016 0.57757,2.666418 -0.0346,0.862887 -0.10498,1.708412 -0.15636,1.878944 -0.0749,0.248599 -0.0423,0.410842 0.16423,0.818501 0.46365,0.914951 0.26859,1.939765 -0.49718,2.612125 l -0.37388,0.328266 -0.44145,3.109474 c -0.35572,2.505614 -0.41699,3.144181 -0.31546,3.288197 0.32075,0.454972 0.4601,0.81114 0.50918,1.301396 0.0456,0.455141 0.007,0.6184 -0.27093,1.143125 -0.27861,0.526241 -0.30904,0.65532 -0.21686,0.91976 0.28531,0.818434 -0.004,1.895839 -0.63825,2.379885 l -0.35458,0.27045 -0.29037,2.216128 -0.29037,2.216128 0.21844,0.277702 0.21844,0.277702 0.10967,-0.295809 c 0.0603,-0.162695 0.41578,-1.101969 0.78991,-2.087276 l 0.68023,-1.791466 -0.16794,-0.520003 c -0.29114,-0.901466 -0.15724,-1.528484 0.47226,-2.211409 0.33786,-0.366531 0.40711,-0.507844 0.36191,-0.738487 -0.15315,-0.78146 0.38873,-1.799545 1.16995,-2.198093 0.42887,-0.218793 0.3229,-0.0011 1.49616,-3.073477 l 0.48331,-1.265644 -0.17706,-0.46365 c -0.36775,-0.96293 0.0388,-2.115248 0.91245,-2.586116 0.28474,-0.153468 0.38363,-0.273252 0.38395,-0.465088 5.1e-4,-0.306499 1.36126,-3.045691 1.68635,-3.394626 0.53684,-0.576216 1.40898,-0.694837 2.3581,-0.320729 0.74361,0.293102 1.0933,0.564159 1.33236,1.032767 0.26945,0.528152 0.25784,1.052081 -0.045,2.031298 -0.13715,0.443476 -0.30119,1.058673 -0.36454,1.367106 -0.0634,0.308432 -0.21284,0.718804 -0.3322,0.911938 -0.17963,0.290638 -0.19695,0.395206 -0.10055,0.606796 0.18153,0.398416 0.14085,1.240316 -0.0808,1.671138 -0.22679,0.440907 -0.64777,0.858622 -1.09467,1.086178 -0.27635,0.140714 -0.39311,0.378311 -1.07402,2.185432 l -0.76397,2.027554 0.16969,0.525409 c 0.0933,0.288976 0.16968,0.619318 0.16968,0.734095 0,0.439189 -0.25804,1.037035 -0.62999,1.459595 -0.34865,0.39608 -0.38641,0.495499 -0.38183,1.005273 0.008,0.884198 -0.3785,1.513773 -1.22873,2.001786 -0.34091,0.195675 -0.41944,0.349316 -1.13751,2.225566 l -0.77132,2.015381 0.17606,0.499328 c 0.44997,1.276104 -0.30076,2.620644 -1.59544,2.857392 -0.20865,0.03816 -0.42467,0.05808 -0.48005,0.04427 z m 0.34141,-1.753209 c 0.28494,-0.199579 0.29315,-0.500995 0.023,-0.844436 -0.11369,-0.144531 -0.20671,-0.391779 -0.20671,-0.54944 0,-0.331543 1.91913,-5.440541 2.13929,-5.695106 0.081,-0.09361 0.34841,-0.220864 0.59432,-0.282785 0.46586,-0.117306 0.62242,-0.315855 0.51526,-0.653472 -0.0848,-0.267194 -0.44472,-0.386155 -0.79689,-0.263389 -0.38338,0.133648 -0.80894,-0.04721 -1.04286,-0.443209 -0.24243,-0.410402 -0.73606,-0.431592 -0.91482,-0.03927 -0.0935,0.205145 -0.0928,0.306155 0.003,0.439249 0.0683,0.09506 0.19737,0.313616 0.28677,0.485674 0.1595,0.306988 0.14409,0.361332 -0.8248,2.909019 -0.54304,1.427903 -1.04017,2.712145 -1.10475,2.853872 -0.12125,0.266116 -0.48529,0.487184 -0.80228,0.487184 -0.26296,0 -0.42921,0.206761 -0.42921,0.533798 0,0.374953 0.24295,0.493552 0.86698,0.423214 0.48682,-0.05487 0.51748,-0.04221 0.89956,0.37159 0.44478,0.481684 0.4743,0.491628 0.79428,0.267506 z m -15.07862,-0.975991 c 0.41645,-0.420633 0.69114,-0.499773 1.05633,-0.304333 0.25978,0.139033 0.57823,0.03895 0.72022,-0.226362 0.15252,-0.284979 -0.10607,-0.662085 -0.50931,-0.742732 -0.17003,-0.03401 -0.39444,-0.153371 -0.49867,-0.265253 -0.28121,-0.301846 -2.01814,-5.6263 -1.93868,-5.942905 0.0351,-0.140067 0.15275,-0.335062 0.26133,-0.433322 0.26455,-0.239419 0.24962,-0.615087 -0.0323,-0.81255 -0.31432,-0.220156 -0.32811,-0.215759 -0.79173,0.252522 -0.42325,0.427501 -0.63273,0.486688 -1.09734,0.310044 -0.30859,-0.117324 -0.60852,-0.0038 -0.71362,0.270088 -0.0799,0.208171 0.19474,0.660102 0.40112,0.660102 0.32466,0 0.66207,0.249731 0.81898,0.606157 0.091,0.206633 0.53778,1.52289 0.99293,2.925016 0.8614,2.653642 0.88848,2.834753 0.4751,3.177828 -0.23696,0.196656 -0.20465,0.59012 0.0639,0.778221 0.31432,0.220157 0.32811,0.21576 0.79173,-0.252521 z m 10.80509,-0.782529 c 0.23776,-0.237759 0.19883,-0.530906 -0.10548,-0.794286 -0.14734,-0.127523 -0.31198,-0.313664 -0.36586,-0.413647 -0.10465,-0.194172 0.55623,-5.584772 0.74433,-6.071272 0.055,-0.142226 0.27352,-0.351516 0.48562,-0.465088 0.7589,-0.406346 0.45737,-1.307961 -0.30684,-0.917523 -0.42305,0.216136 -0.85581,0.174401 -1.20068,-0.115795 -0.33379,-0.28086 -0.63023,-0.329137 -0.82501,-0.134359 -0.20277,0.202769 -0.142,0.546593 0.14385,0.813975 0.14733,0.137807 0.31217,0.332729 0.3663,0.433158 0.10394,0.192821 -0.55741,5.599001 -0.73895,6.040628 -0.0517,0.125818 -0.28471,0.349123 -0.51775,0.496233 -0.34367,0.216949 -0.41762,0.318188 -0.39151,0.535962 0.049,0.408838 0.29595,0.509785 0.8222,0.33611 0.55896,-0.184476 0.79565,-0.148981 1.11967,0.167912 0.29635,0.289839 0.54038,0.317721 0.77011,0.08799 z m -6.43332,-0.302676 c 0.34528,-0.290536 0.77307,-0.333074 1.07244,-0.10664 0.30276,0.228997 0.63952,0.191012 0.8257,-0.09314 0.18954,-0.289278 0.076,-0.622687 -0.24689,-0.725178 -0.10476,-0.03325 -0.28662,-0.164298 -0.40413,-0.29122 -0.18981,-0.204996 -0.24358,-0.557403 -0.48148,-3.155535 -0.24359,-2.660173 -0.25354,-2.952361 -0.11009,-3.229777 0.0867,-0.167755 0.20197,-0.30501 0.25605,-0.30501 0.0541,0 0.17245,-0.113153 0.26307,-0.251451 0.12566,-0.191781 0.13851,-0.300488 0.0542,-0.458089 -0.18393,-0.343667 -0.49103,-0.370291 -0.84413,-0.07318 -0.36534,0.307413 -0.85966,0.348626 -1.213,0.101132 -0.4512,-0.316032 -0.96107,0.0472 -0.79606,0.56712 0.0341,0.107575 0.19852,0.252105 0.36527,0.321178 0.16676,0.06907 0.35841,0.19211 0.42589,0.273416 0.11959,0.144098 0.5954,4.701725 0.60363,5.781954 0.004,0.471891 -0.0332,0.559856 -0.35773,0.855168 -0.39228,0.356964 -0.4539,0.630641 -0.19933,0.885217 0.22779,0.227781 0.43138,0.202941 0.78662,-0.09597 z m 14.5982,-7.965553 c 0.21221,-0.21221 0.20495,-0.375355 -0.0301,-0.676312 -0.39143,-0.50123 -0.37415,-0.587849 0.6599,-3.306852 0.54617,-1.436164 1.04411,-2.707111 1.10652,-2.824328 0.16263,-0.305426 0.40205,-0.464438 0.705,-0.468216 0.342,-0.0043 0.5116,-0.181812 0.5116,-0.535587 0,-0.37738 -0.23936,-0.493591 -0.88037,-0.427433 -0.50052,0.05166 -0.54204,0.03674 -0.81814,-0.293908 -0.40993,-0.490915 -0.5441,-0.547545 -0.8392,-0.354192 -0.3067,0.200962 -0.32303,0.504117 -0.0461,0.856161 0.11369,0.144531 0.20671,0.385241 0.20671,0.53491 0,0.205465 -1.30745,3.782636 -2.01661,5.517419 -0.0893,0.218441 -0.57154,0.487103 -0.87435,0.487103 -0.29797,0 -0.47773,0.415623 -0.31295,0.72353 0.11136,0.208065 0.17914,0.226459 0.63538,0.172425 0.60986,-0.07223 0.92221,0.05046 1.16203,0.45644 0.20084,0.340005 0.56812,0.401392 0.83068,0.13884 z m -22.46031,-0.968001 c 0.32326,-0.437227 0.70996,-0.574018 1.18216,-0.418177 0.33886,0.111834 0.40122,0.102933 0.58809,-0.08393 0.32444,-0.324441 0.17857,-0.709698 -0.3195,-0.843812 -0.21777,-0.05864 -0.46718,-0.188207 -0.55422,-0.287924 -0.087,-0.09972 -0.46815,-1.092514 -0.84688,-2.206216 -0.71935,-2.115315 -0.74523,-2.324391 -0.33036,-2.668707 0.19484,-0.161702 0.21923,-0.637631 0.0418,-0.815088 -0.22012,-0.220128 -0.52504,-0.132814 -0.87662,0.251027 -0.33934,0.370467 -0.35092,0.374216 -0.94789,0.306676 -0.69138,-0.07822 -0.87919,0.04182 -0.82362,0.526419 0.0276,0.24108 0.10886,0.314377 0.47764,0.431062 0.24439,0.07733 0.51319,0.245666 0.59734,0.374092 0.21011,0.320672 1.38712,3.863175 1.38712,4.174888 0,0.13852 -0.11627,0.404296 -0.25838,0.590612 -0.31226,0.409387 -0.31832,0.499314 -0.0517,0.76596 0.28412,0.284122 0.47161,0.25941 0.73503,-0.09688 z m 15.67508,-1.304241 c 0.32266,-0.225996 0.28667,-0.472216 -0.13203,-0.903338 -0.19896,-0.204856 -0.36174,-0.456154 -0.36174,-0.558439 0,-0.667457 1.06867,-7.664346 1.20172,-7.868003 0.0865,-0.132323 0.29136,-0.287364 0.45536,-0.344535 0.164,-0.05717 0.32647,-0.193077 0.36105,-0.302014 0.16573,-0.522189 -0.34288,-0.886469 -0.79527,-0.569597 -0.33944,0.237753 -0.74821,0.203007 -1.10066,-0.09356 -0.73542,-0.618817 -1.33335,0.0582 -0.63896,0.72347 0.24669,0.236347 0.31006,0.384452 0.31006,0.724708 0,0.664018 -0.99379,7.431171 -1.12818,7.682282 -0.0657,0.122823 -0.27613,0.288756 -0.46756,0.368739 -0.4291,0.179289 -0.56028,0.514804 -0.30959,0.791817 0.21876,0.241724 0.42686,0.250745 0.85518,0.03707 0.37567,-0.187408 0.65802,-0.128002 1.08391,0.228048 0.34555,0.288883 0.36907,0.291823 0.66671,0.08335 z m -8.74315,-0.407551 c 0.34786,-0.292704 0.67543,-0.32875 0.96909,-0.106639 0.24465,0.185046 0.68333,0.202708 0.85174,0.03429 0.2504,-0.250397 0.13953,-0.587069 -0.2807,-0.852344 -0.22259,-0.14052 -0.43392,-0.302744 -0.46962,-0.360498 -0.0674,-0.109093 -0.56933,-5.274605 -0.57141,-5.880816 -9.1e-4,-0.264876 0.0826,-0.418892 0.36055,-0.664972 0.36946,-0.327093 0.45925,-0.660131 0.23771,-0.881669 -0.18025,-0.180253 -0.53508,-0.15202 -0.81805,0.06509 -0.42112,0.323104 -0.60764,0.34244 -1.07099,0.111029 -0.55058,-0.274969 -0.88081,-0.154125 -0.88081,0.322314 0,0.242491 0.0831,0.357572 0.40472,0.560617 0.2226,0.14052 0.4314,0.298647 0.464,0.351393 0.0556,0.08991 0.57822,5.441337 0.57822,5.920406 0,0.12128 -0.16278,0.374031 -0.36174,0.561669 -0.75142,0.708686 -0.19827,1.481139 0.58729,0.820128 z m -8.82621,-6.977296 c 0.18665,-0.113801 0.36418,-0.271561 0.3945,-0.350578 0.0303,-0.07902 -0.0881,-0.427439 -0.2632,-0.774271 -0.17508,-0.346831 -0.41375,-0.885645 -0.53038,-1.197364 -0.11663,-0.311718 -0.25912,-0.595853 -0.31665,-0.63141 -0.0575,-0.03556 -0.31032,0.01391 -0.56175,0.109937 -0.53432,0.204058 -0.54457,0.25805 -0.25044,1.31944 0.11368,0.410257 0.2067,0.848475 0.2067,0.973816 0,0.125341 0.0454,0.347192 0.1008,0.493003 0.0837,0.220074 0.16707,0.265045 0.49092,0.264724 0.21458,-2.12e-4 0.54285,-0.0935 0.7295,-0.207297 z m 27.65642,-0.774169 c 0.0498,-0.227376 0.20094,-0.781355 0.3359,-1.231064 0.13496,-0.449709 0.24538,-0.878721 0.24538,-0.95336 0,-0.170229 -0.53136,-0.45175 -0.84753,-0.449026 -0.20046,0.0017 -0.33205,0.195254 -0.84055,1.236195 -0.33158,0.678782 -0.57068,1.286244 -0.53132,1.349917 0.16904,0.273515 0.73222,0.516279 1.1342,0.488904 0.39125,-0.02665 0.41826,-0.05032 0.50392,-0.441566 z m -18.74057,-2.689828 c 0.3419,-0.176807 0.36413,-0.311392 0.16172,-0.979198 -0.0775,-0.255799 -0.17425,-0.752625 -0.21493,-1.104059 -0.10195,-0.880868 -0.2062,-0.999528 -0.79995,-0.91049 l -0.47533,0.07128 -0.0441,1.359208 c -0.0404,1.245658 -0.0273,1.374317 0.15636,1.540075 0.24695,0.222851 0.80934,0.233572 1.21619,0.02318 z m 9.82603,-1.584366 c 0.0354,-0.03664 0.0936,-0.681179 0.1294,-1.432299 0.0622,-1.304196 0.0556,-1.370764 -0.1462,-1.478757 -0.11621,-0.0622 -0.38105,-0.09877 -0.58852,-0.08127 -0.32392,0.02732 -0.38725,0.07563 -0.44824,0.341875 -0.0391,0.170532 -0.17613,0.762576 -0.30459,1.315653 -0.26084,1.12296 -0.23062,1.244871 0.35082,1.415343 0.31918,0.09358 0.88274,0.04852 1.00733,-0.08055 z"
       id="path7" /></g></svg>
