<?xml version="1.0" encoding="UTF-8" standalone="no"?>
<!-- Created with Inkscape (http://www.inkscape.org/) -->

<svg
   width="48.004887mm"
   height="45.634178mm"
   viewBox="0 0 48.004887 45.634178"
   version="1.1"
   id="svg5"
   inkscape:version="1.1.1 (3bf5ae0d25, 2021-09-20)"
   sodipodi:docname="head.svg"
   xml:space="preserve"
   xmlns:inkscape="http://www.inkscape.org/namespaces/inkscape"
   xmlns:sodipodi="http://sodipodi.sourceforge.net/DTD/sodipodi-0.dtd"
   xmlns="http://www.w3.org/2000/svg"
   xmlns:svg="http://www.w3.org/2000/svg"><sodipodi:namedview
     id="namedview7"
     pagecolor="#ffffff"
     bordercolor="#cccccc"
     borderopacity="1"
     inkscape:pageshadow="0"
     inkscape:pageopacity="1"
     inkscape:pagecheckerboard="0"
     inkscape:document-units="mm"
     showgrid="false"
     inkscape:zoom="0.73406285"
     inkscape:cx="397.10496"
     inkscape:cy="561.94098"
     inkscape:window-width="1920"
     inkscape:window-height="1009"
     inkscape:window-x="-8"
     inkscape:window-y="-8"
     inkscape:window-maximized="1"
     inkscape:current-layer="layer1"
     inkscape:showpageshadow="0"
     inkscape:deskcolor="#d1d1d1"><inkscape:page
       x="0"
       y="0"
       width="48.004887"
       height="45.634178"
       id="page1"
       margin="0"
       bleed="0" /></sodipodi:namedview><defs
     id="defs2"><clipPath
       clipPathUnits="userSpaceOnUse"
       id="clipPath262175"><rect
         style="opacity:1;fill:none;fill-opacity:1;stroke:#ffffff;stroke-width:0.7;stroke-linecap:square;stroke-dasharray:none;stroke-opacity:1;paint-order:fill markers stroke"
         id="rect262176"
         width="51.542477"
         height="44.333736"
         x="124.37952"
         y="-15.109544"
         ry="3.3943925" /></clipPath></defs><g
     inkscape:label="Warstwa 1"
     inkscape:groupmode="layer"
     id="layer1"
     transform="translate(-125.78788,14.934857)"><path
       style="fill:#ffffff;stroke:#ffffff;stroke-width:0.7;stroke-dasharray:none"
       d="m 149.07307,29.089939 c -1.53352,-0.259105 -2.46263,-0.703086 -3.36078,-1.605982 -0.31364,-0.315295 -0.72377,-0.864793 -0.91141,-1.221107 -0.51208,-0.972447 -0.87955,-1.27045 -2.18235,-1.769802 -1.38366,-0.530348 -2.02158,-0.943474 -2.45253,-1.588308 -0.52735,-0.789075 -0.60768,-1.408657 -0.41859,-3.228747 0.2208,-2.12521 0.16619,-2.43499 -0.74748,-4.240132 -0.71321,-1.409087 -1.03355,-2.292358 -1.03607,-2.856693 -8.7e-4,-0.195965 -0.11756,-0.367673 -0.40406,-0.594587 -0.85723,-0.678939 -1.43367,-2.0374668 -1.31614,-3.1018211 0.035,-0.3165702 0.15697,-0.8704058 0.27115,-1.2307458 0.275,-0.8679123 0.26188,-1.2953406 -0.0642,-2.0917067 -0.35718,-0.8723019 -0.37136,-1.7822876 -0.0397,-2.5510082 0.29227,-0.6775082 0.2543,-1.0373394 -0.31619,-2.99613846 -0.61963,-2.12755054 -0.58221,-2.79381974 0.2484,-4.42226774 0.20405,-0.400044 0.53952,-1.213948 0.7455,-1.808676 0.959,-2.7689401 2.26432,-4.563181 4.31,-5.924329 1.99386,-1.326668 4.37746,-2.068142 7.51946,-2.339103 4.79089,-0.41316 9.20117,0.432264 12.01222,2.302668 2.12855,1.41629 3.36384,3.1471729 4.47527,6.270762 0.21161,0.594693 0.57372,1.451035 0.8047,1.902981 0.3675,0.7190727 0.42557,0.9284154 0.4648,1.6758415 0.0398,0.7580104 0.003,0.9932004 -0.32777,2.09009684 -0.20493,0.6797867 -0.42827,1.56065236 -0.49632,1.95747926 -0.11559,0.6740893 -0.10813,0.7577443 0.11352,1.2729791 0.31871,0.7408698 0.25944,1.9080437 -0.14569,2.8691361 l -0.27575,0.6541371 0.27284,0.9478324 c 0.15006,0.5213077 0.2982,1.1586346 0.3292,1.4162819 0.12115,1.006719 -0.52656,2.5044038 -1.35704,3.1378348 -0.27887,0.212709 -0.35147,0.352698 -0.40941,0.789499 -0.0935,0.704502 -0.40782,1.530798 -0.94358,2.48015 -0.94849,1.680712 -1.0636,2.280346 -0.82163,4.279845 0.36341,3.003058 -0.22168,3.987923 -2.94666,4.960036 -1.17313,0.418501 -1.4756,0.661695 -2.03284,1.634439 -0.89253,1.558052 -2.04187,2.419647 -3.75492,2.814856 -1.03853,0.239592 -3.691,0.302675 -4.80591,0.114299 z m 4.35572,-1.145328 c 0.44453,-0.08505 1.06427,-0.279906 1.3772,-0.433009 0.67862,-0.33202 1.44669,-1.070809 1.76489,-1.697616 0.67231,-1.324364 1.23186,-1.778614 2.97923,-2.41861 1.73318,-0.634795 2.17746,-1.242782 2.03819,-2.789207 -0.28938,-3.213166 -0.21744,-3.693606 0.87442,-5.839437 1.03091,-2.026042 1.05542,-1.920822 -0.33344,-1.431611 -1.27703,0.449825 -1.59198,0.453301 -1.70104,0.01878 -0.12514,-0.498572 -0.0782,-0.530213 1.88892,-1.273113 1.24957,-0.471913 2.02831,-1.013703 2.40754,-1.674996 0.39531,-0.689335 0.40661,-1.1803425 0.058,-2.5220447 -0.33227,-1.2788296 -0.32532,-1.6247593 0.0517,-2.5737989 0.50937,-1.282263 0.42205,-1.6181736 -0.87296,-3.3582591 -1.14068,-1.53270346 -1.97983,-3.3005066 -1.89892,-4.0003682 0.0236,-0.2041077 0.11482,-0.3142779 0.31948,-0.3858334 0.36331,-0.127025 0.58615,0.088471 0.84776,0.8198186 0.26943,0.75321454 0.93897,2.02062594 1.2853,2.43303214 l 0.30022,0.35749526 0.0728,-0.31005856 c 0.04,-0.1705323 0.23038,-0.8391757 0.42297,-1.4858743 0.47437,-1.59290524 0.46226,-1.82226884 -0.16236,-3.07476204 -0.28189,-0.56524 -0.68136,-1.514411 -0.88771,-2.109269 -1.26001,-3.6322149 -3.20183,-5.5982008 -6.67841,-6.7615398 -1.97858,-0.662074 -3.25709,-0.82765 -6.39076,-0.82765 -2.38289,0 -2.90503,0.02998 -4.01746,0.230673 -3.63243,0.655326 -6.22891,2.163018 -7.73528,4.4916319 -0.53448,0.82621 -0.85104,1.512714 -1.33004,2.8843349 -0.19123,0.547612 -0.58146,1.473664 -0.86716,2.057895 -0.36621,0.7488542 -0.51946,1.1870987 -0.51946,1.485464 0,0.357944 0.74646,3.21821014 0.87286,3.344612 0.15149,0.1514923 1.22126,-1.78602316 1.65384,-2.9953668 0.18054,-0.5047101 0.40937,-0.6652633 0.78035,-0.5475169 0.27903,0.088561 0.36392,0.4967047 0.21155,1.0171297 -0.26457,0.90360244 -1.03736,2.33258014 -1.83166,3.386939 -1.2569,1.6684217 -1.3728,2.0972576 -0.88595,3.2781687 0.35474,0.8604971 0.36864,1.7150179 0.045,2.7676212 -0.66501,2.1628673 0.0987,3.2397073 3.02974,4.2718883 0.5116,0.180162 1.03482,0.395839 1.16272,0.479281 0.29268,0.190948 0.29998,0.570646 0.0159,0.827721 -0.21377,0.193466 -0.23285,0.190445 -1.44987,-0.229668 -1.4683,-0.506851 -1.4369,-0.648952 -0.34571,1.564277 1.06231,2.15468 1.06452,2.170137 0.81253,5.691223 -0.11222,1.568014 0.2876,2.141268 1.90517,2.731606 1.86624,0.681095 2.25495,0.980756 3.04182,2.34496 0.74292,1.288005 1.68505,1.959172 3.16359,2.253713 0.96312,0.191865 3.52476,0.192628 4.52449,0.0013 z m -2.85581,-5.926917 c -0.17157,-0.143606 -0.2091,-0.321632 -0.23217,-1.101467 l -0.0275,-0.930175 -0.56844,-0.06259 c -0.31264,-0.03443 -0.7619,-0.09594 -0.99834,-0.136697 -0.3726,-0.06422 -0.43849,-0.04705 -0.49431,0.128818 -0.0354,0.111607 0.006,0.405664 0.0925,0.653461 0.28344,0.813864 0.14679,1.170461 -0.42306,1.103964 -0.43545,-0.05081 -0.69778,-0.585776 -0.72428,-1.476995 -0.0215,-0.722454 -0.0236,-0.727446 -0.36487,-0.850079 -0.7961,-0.286099 -1.04167,-0.04379 -0.84515,0.833928 0.12707,0.567527 0.0709,0.780205 -0.23705,0.897283 -0.32397,0.123171 -0.63123,-0.02978 -0.76462,-0.380632 -0.13059,-0.343488 -0.12558,-1.400678 0.008,-1.752848 0.0888,-0.233582 0.0704,-0.31938 -0.10975,-0.511118 -0.30611,-0.325843 -0.51374,-1.100725 -0.51374,-1.917309 0,-0.603413 -0.0371,-0.743151 -0.27069,-1.020814 -0.14857,-0.17694 -0.40437,-0.390992 -0.56813,-0.475676 -0.38782,-0.200549 -0.41618,-0.686413 -0.0539,-0.923772 0.28459,-0.186468 0.46492,-0.137347 1.0728,0.292217 0.6137,0.433678 0.86467,1.004224 0.93079,2.115958 0.0294,0.494493 0.0978,0.984844 0.1521,1.089668 0.10595,0.20472 0.74925,0.519561 1.29536,0.633966 0.33247,0.06965 0.33591,0.06634 0.33816,-0.325417 0.004,-0.778407 0.68715,-1.766413 1.11537,-1.6142 0.48519,0.172462 0.55998,0.507338 0.22595,1.011709 -0.13106,0.197888 -0.20559,0.485012 -0.20603,0.793657 l -6.8e-4,0.483599 0.54261,0.106052 c 0.29843,0.05833 0.72863,0.119761 0.95601,0.136518 l 0.41341,0.03047 0.028,-1.188558 c 0.0294,-1.244882 0.10656,-1.44694 0.55277,-1.44694 0.4159,0 0.5044,0.265677 0.5044,1.514211 v 1.189387 l 0.28422,-0.05324 c 0.15632,-0.02928 0.51676,-0.08408 0.80098,-0.121765 0.28422,-0.03769 0.59816,-0.112081 0.69763,-0.165315 0.26066,-0.139489 0.24478,-0.910563 -0.0258,-1.254599 -0.28934,-0.367832 -0.26629,-0.754816 0.0576,-0.967031 0.25042,-0.164085 0.2789,-0.162287 0.5426,0.03426 0.39882,0.297258 0.63802,0.758346 0.71038,1.369332 0.0629,0.531114 0.0633,0.531592 0.38389,0.464583 0.46416,-0.09702 1.15893,-0.41376 1.25753,-0.573301 0.0466,-0.07546 0.11555,-0.580751 0.15315,-1.122877 0.0979,-1.411584 0.51702,-2.112587 1.48263,-2.47971 0.40862,-0.155356 0.78657,0.08729 0.78657,0.504981 0,0.242345 -0.084,0.347103 -0.45091,0.562108 -0.54472,0.319226 -0.65438,0.575897 -0.71912,1.683191 -0.0271,0.463429 -0.11435,0.975026 -0.19389,1.136882 -0.13126,0.267107 -0.12169,0.340599 0.10365,0.795807 0.21027,0.424758 0.24237,0.618409 0.20971,1.265164 -0.0453,0.896963 -0.28046,1.256312 -0.74572,1.139537 -0.39119,-0.09818 -0.51097,-0.393357 -0.36173,-0.891457 0.0966,-0.322474 0.0959,-0.505482 -0.003,-0.836381 -0.10897,-0.363703 -0.15877,-0.414668 -0.35226,-0.360517 -0.12394,0.03469 -0.5044,0.135079 -0.84546,0.223093 l -0.62012,0.160025 -0.002,0.691417 c -0.003,0.935113 -0.27548,1.505108 -0.74063,1.550153 -0.25698,0.02489 -0.36655,-0.02458 -0.49765,-0.224669 -0.15328,-0.23393 -0.15384,-0.284195 -0.006,-0.569382 0.089,-0.172041 0.16175,-0.505234 0.16175,-0.74043 v -0.427628 l -0.43925,0.07568 c -0.24158,0.04162 -0.69504,0.103849 -1.00769,0.138276 l -0.56844,0.06259 -0.0302,0.924794 c -0.0166,0.508636 -0.0763,0.980325 -0.13257,1.048198 -0.175,0.210854 -0.50068,0.237589 -0.71447,0.05865 z m -1.39656,-7.760359 c -0.74289,-0.179282 -1.18748,-0.690821 -1.18817,-1.367104 -5.4e-4,-0.526808 1.71154,-3.974703 2.1618,-4.353573 0.58516,-0.492376 1.40796,-0.4993567 2.03996,-0.017307 0.46665,0.3559319 2.20592,3.799337 2.20534,4.366148 -0.001,1.158663 -1.15803,1.668186 -2.6205,1.154167 l -0.59835,-0.210302 -0.75902,0.261978 c -0.41746,0.144088 -0.79771,0.257218 -0.84501,0.251399 -0.0473,-0.0058 -0.22552,-0.04425 -0.39605,-0.08541 z m 1.0911,-1.310243 c 0.7105,-0.318852 1.20903,-0.302135 2.03705,0.06831 l 0.54433,0.243523 0.22641,-0.226411 0.22641,-0.226411 -0.87409,-1.732696 -0.87409,-1.732697 h -0.36174 c -0.36021,0 -0.36491,0.00609 -1.11718,1.44694 -0.99632,1.908308 -1.01956,1.973778 -0.79058,2.2268 0.23303,0.257496 0.26441,0.255347 0.98348,-0.06735 z m -7.3168,-2.987727 c -1.3404,-0.2912133 -2.63276,-1.2491033 -3.17185,-2.3509543 -1.13143,-2.3125688 0.0974,-4.8417482 2.80713,-5.7776409 0.98844,-0.3413896 2.94494,-0.3479457 4.008,-0.01343 1.41176,0.4442375 2.24211,1.2413255 2.64507,2.5391026 0.64561,2.0792856 -0.31879,4.0948011 -2.44273,5.105049 -1.2861,0.6117326 -2.56152,0.7768546 -3.84562,0.4978736 z m 2.4604,-1.1469492 c 1.27192,-0.3773792 2.22909,-1.0802718 2.68417,-1.9711163 0.53713,-1.0514722 0.20284,-2.7284897 -0.67778,-3.4001743 -1.132,-0.8634144 -3.46155,-1.0564896 -4.88488,-0.4048636 -1.20004,0.5493959 -1.94606,1.4779468 -2.05693,2.5602093 -0.098,0.9569518 0.37062,2.0153469 1.15847,2.616275 0.90522,0.6904447 2.57661,0.9558119 3.77695,0.5996699 z m 11.8785,1.2320352 c -1.63873,-0.2743161 -3.23649,-1.346587 -3.94032,-2.6443804 -0.33654,-0.6205425 -0.34876,-0.6832098 -0.34708,-1.7800674 0.002,-1.0080807 0.0325,-1.202746 0.27282,-1.7182452 0.7613,-1.6327158 2.49784,-2.4636298 4.88358,-2.3367325 3.65343,0.1943259 5.8363,3.1672498 4.43174,6.03574 -0.32931,0.6725366 -1.24272,1.5662245 -1.98548,1.9426073 -0.90216,0.4571592 -2.30815,0.6696652 -3.31526,0.5010782 z m 2.28871,-1.2704799 c 1.29175,-0.4031519 2.1808,-1.4120123 2.32404,-2.6372036 0.2247,-1.9219545 -1.64836,-3.4904827 -4.14766,-3.4733225 -2.02837,0.013927 -3.1486,0.6667894 -3.62975,2.1153843 -0.34968,1.0527943 -0.018,2.1781482 0.88147,2.9907692 1.1922,1.0770848 3.03899,1.4827942 4.5719,1.0043726 z"
       id="path262175"
       clip-path="url(#clipPath262175)" /><rect
       style="opacity:1;fill:none;fill-opacity:1;stroke:none;stroke-width:0.633219;stroke-linecap:square;stroke-dasharray:none;stroke-opacity:1;paint-order:fill markers stroke"
       id="rect262177"
       width="48.004887"
       height="45.121391"
       x="125.78788"
       y="-14.422066"
       ry="3.3994236" /></g></svg>
