<?xml version="1.0" encoding="UTF-8" standalone="no"?>
<!-- Uploaded to: SVG Repo, www.svgrepo.com, Transformed by: SVG Repo Mixer Tools -->

<svg
   fill="#1691d7"
   version="1.1"
   id="Capa_1"
   width="800.02502"
   height="717.91437"
   viewBox="0 0 47.00147 42.177469"
   xml:space="preserve"
   stroke="#1691d7"
   stroke-width="0.00047001"
   sodipodi:docname="pdtr.svg"
   xmlns:inkscape="http://www.inkscape.org/namespaces/inkscape"
   xmlns:sodipodi="http://sodipodi.sourceforge.net/DTD/sodipodi-0.dtd"
   xmlns="http://www.w3.org/2000/svg"
   xmlns:svg="http://www.w3.org/2000/svg"><defs
   id="defs3" /><sodipodi:namedview
   id="namedview3"
   pagecolor="#ffffff"
   bordercolor="#cccccc"
   borderopacity="1"
   inkscape:showpageshadow="0"
   inkscape:pageopacity="1"
   inkscape:pagecheckerboard="0"
   inkscape:deskcolor="#d1d1d1"><inkscape:page
     x="0"
     y="-1.758873e-16"
     width="47.001469"
     height="42.177471"
     id="page2"
     margin="0"
     bleed="0" /></sodipodi:namedview>





<g
   id="g3"
   style="fill:#ffffff;fill-opacity:1;stroke:#ffffff;stroke-opacity:1"
   transform="translate(2.3500502e-4,-2.4117651)"> <g
   id="g2"
   style="fill:#ffffff;fill-opacity:1;stroke:#ffffff;stroke-opacity:1"> <path
   d="m 38.109,31.792 c -0.861,0 -1.557,0.699 -1.557,1.56 v 1.52 h 3.112 v -1.52 c 0.002,-0.86 -0.696,-1.56 -1.555,-1.56 z"
   id="path1"
   style="fill:#ffffff;fill-opacity:1;stroke:#ffffff;stroke-opacity:1" /> <path
   d="m 38.109,26.805 c -4.48,0 -8.174,3.315 -8.793,7.621 H 17.684 C 17.359,32.168 16.19,30.182 14.501,28.805 l 5.569,-9.299 c 1.058,0.445 2.214,0.69 3.431,0.69 4.901,0 8.892,-3.988 8.892,-8.893 0,-4.902 -3.988,-8.891 -8.892,-8.891 -4.903,0 -8.891,3.989 -8.891,8.891 0,2.778 1.282,5.262 3.283,6.895 l -5.569,9.298 C 11.268,27.051 10.109,26.806 8.891,26.806 3.99,26.805 0,30.793 0,35.698 c 0,4.901 3.989,8.891 8.891,8.891 4.473,0 8.172,-3.319 8.792,-7.622 h 11.633 c 0.619,4.309 4.312,7.622 8.793,7.622 4.912,0 8.892,-3.981 8.892,-8.891 0,-4.912 -3.98,-8.893 -8.892,-8.893 z M 17.148,11.303 c 0,-3.501 2.85,-6.351 6.353,-6.351 3.503,0 6.353,2.85 6.353,6.351 0,3.503 -2.85,6.354 -6.353,6.354 -3.503,0 -6.353,-2.851 -6.353,-6.354 z M 8.892,42.047 c -3.499,0 -6.349,-2.85 -6.349,-6.352 0,-3.502 2.85,-6.353 6.349,-6.353 3.503,0 6.353,2.851 6.353,6.353 -10e-4,3.503 -2.85,6.352 -6.353,6.352 z m 33.665,-2.058 c 0,0.643 -0.529,1.17 -1.173,1.17 h -6.551 c -0.644,0 -1.169,-0.527 -1.169,-1.17 V 36.04 c 0,-0.644 0.525,-1.169 1.169,-1.169 h 0.158 v -1.52 c 0,-1.72 1.397,-3.119 3.118,-3.119 1.717,0 3.115,1.398 3.115,3.119 v 1.52 h 0.158 c 0.643,0 1.172,0.525 1.172,1.169 v 3.949 z"
   id="path2"
   style="fill:#ffffff;fill-opacity:1;stroke:#ffffff;stroke-opacity:1" /> </g> </g>

</svg>
